<svg width="20" height="20" viewBox="0 0 20 20" fill="none" xmlns="http://www.w3.org/2000/svg">
<g clip-path="url(#clip0_6228_85061)">
<path d="M17.4956 10.4785V1.50562C17.4956 0.95333 17.0479 0.505615 16.4956 0.505615H1.50391C0.951622 0.505615 0.503906 0.95333 0.503906 1.50562V12.5085C0.503906 13.0608 0.951622 13.5085 1.50391 13.5085H7.99976H10.0105" stroke="#656C87" stroke-linejoin="round"/>
<circle cx="2.50928" cy="2.5" r="0.5" fill="#656C87"/>
<circle cx="4.50488" cy="2.5" r="0.5" fill="#656C87"/>
<circle cx="6.50098" cy="2.5" r="0.5" fill="#656C87"/>
<path d="M6.01123 5.49634L4.06787 7.00123L6.01123 8.50783" stroke="#656C87" stroke-linecap="round" stroke-linejoin="round"/>
<path d="M11.9917 5.49634L13.9351 7.00123L11.9917 8.50783" stroke="#656C87" stroke-linecap="round" stroke-linejoin="round"/>
<path d="M11.0049 3.4978L6.99805 10.5039" stroke="#656C87" stroke-linecap="round" stroke-linejoin="round"/>
<path d="M19.5072 15.2161V13.7704C19.5072 13.7183 19.4898 13.6684 19.4551 13.6207C19.4204 13.5729 19.377 13.5447 19.3249 13.536L18.4349 13.4013C18.2412 13.372 18.0735 13.2138 17.9965 13.0337V13.0337C17.9177 12.8494 17.9383 12.6571 18.0594 12.4974C18.194 12.3199 18.3619 12.1082 18.563 11.8624C18.6064 11.8103 18.6281 11.7561 18.6281 11.6996C18.6281 11.6432 18.6085 11.5933 18.5695 11.5499C18.4523 11.3892 18.2374 11.1548 17.9248 10.8466C17.6122 10.5384 17.4082 10.3842 17.3127 10.3842C17.2606 10.3842 17.2041 10.4038 17.1434 10.4428L16.498 10.9479C16.3438 11.0686 16.1339 11.0848 15.9532 11.0093V11.0093C15.7726 10.9339 15.638 10.7738 15.6129 10.5797C15.5588 10.1603 15.5089 9.86291 15.4633 9.68746C15.4329 9.5659 15.3548 9.50513 15.2289 9.50513H13.7832C13.7224 9.50513 13.6693 9.52358 13.6237 9.56048C13.5781 9.59738 13.5531 9.64405 13.5488 9.70048L13.4137 10.5883C13.3847 10.7786 13.2415 10.9367 13.0634 11.0098V11.0098C12.8822 11.0841 12.6812 11.0643 12.5251 10.9459L11.8622 10.4428C11.8188 10.4038 11.7645 10.3842 11.6994 10.3842C11.6386 10.3842 11.5844 10.4081 11.5366 10.4559C10.9896 10.9508 10.6314 11.3154 10.4621 11.5499C10.4317 11.5933 10.4166 11.6432 10.4166 11.6996C10.4166 11.7517 10.4339 11.8017 10.4686 11.8494C10.5338 11.9406 10.6445 12.0849 10.8008 12.2825C10.8533 12.3489 10.9014 12.4102 10.9451 12.4666C11.0742 12.633 11.0806 12.8663 10.9997 13.0607V13.0607C10.9168 13.2601 10.7481 13.4065 10.5345 13.438L9.69373 13.5621C9.63729 13.5707 9.59171 13.5979 9.55698 13.6435C9.52225 13.689 9.50488 13.74 9.50488 13.7965V15.2421C9.50488 15.2942 9.52225 15.3441 9.55698 15.3919C9.59171 15.4397 9.63295 15.4679 9.6807 15.4766L10.5667 15.6099C10.7654 15.6398 10.9236 15.7762 11.0021 15.9611V15.9611C11.0795 16.1432 11.0747 16.3609 10.9556 16.5189C10.8132 16.708 10.6444 16.9206 10.4491 17.1566C10.4057 17.2087 10.384 17.2608 10.384 17.3129C10.384 17.3563 10.4035 17.4063 10.4426 17.4627C10.5555 17.619 10.7693 17.8523 11.084 18.1627C11.3988 18.4731 11.6039 18.6283 11.6994 18.6283C11.7558 18.6283 11.8123 18.6066 11.8687 18.5632L12.5138 18.063C12.6683 17.9432 12.8778 17.9276 13.0582 18.0029V18.0029C13.2392 18.0786 13.3742 18.2391 13.3993 18.4337C13.4534 18.8526 13.5032 19.1498 13.5488 19.3251C13.5792 19.4467 13.6573 19.5074 13.7832 19.5074H15.2289C15.2896 19.5074 15.3428 19.489 15.3884 19.4521C15.434 19.4152 15.4589 19.3685 15.4633 19.3121L15.5983 18.4248C15.6273 18.2342 15.7708 18.0758 15.9492 18.0026V18.0026C16.1302 17.9283 16.3309 17.9477 16.4871 18.0654L17.1564 18.5697C17.1955 18.6088 17.2476 18.6283 17.3127 18.6283C17.3691 18.6283 17.4234 18.6066 17.4755 18.5632C18.0355 18.0466 18.3937 17.6776 18.5499 17.4562C18.5803 17.4215 18.5955 17.3737 18.5955 17.3129C18.5955 17.2608 18.5782 17.2109 18.5434 17.1631C18.4783 17.072 18.3676 16.9276 18.2113 16.7301C18.1587 16.6636 18.1104 16.6021 18.0667 16.5456C17.9374 16.379 17.9286 16.1454 18.0101 15.9509V15.9509C18.0926 15.7541 18.2604 15.6124 18.4714 15.5801L19.3183 15.4505C19.3748 15.4418 19.4204 15.4147 19.4551 15.3691C19.4898 15.3235 19.5072 15.2725 19.5072 15.2161Z" stroke="#656C87"/>
<circle cx="1.91883" cy="1.91883" r="1.91883" transform="matrix(1 0 0 -1 12.5869 16.4248)" stroke="#656C87"/>
</g>
<defs>
<clipPath id="clip0_6228_85061">
<rect width="20" height="20" fill="white"/>
</clipPath>
</defs>
</svg>
