<svg width="20" height="20" viewBox="0 0 20 20" fill="none" xmlns="http://www.w3.org/2000/svg">
<path d="M2.50439 8.50586C2.50439 7.95357 2.95211 7.50586 3.50439 7.50586H15.5039C16.0562 7.50586 16.5039 7.95357 16.5039 8.50586V17.5037C16.5039 18.0559 16.0562 18.5037 15.5039 18.5037H3.50439C2.95211 18.5037 2.50439 18.0559 2.50439 17.5037V8.50586Z" stroke="#656C87" stroke-linejoin="round"/>
<path d="M7.49988 7.42953V4.49849C7.49988 3.39156 8.39722 2.49421 9.50415 2.49421C10.6111 2.49421 11.5084 3.39156 11.5084 4.49849L13.4904 4.48743C13.4904 2.28591 11.7057 0.501221 9.50415 0.501221C7.30263 0.501221 5.51794 2.28591 5.51794 4.48743V7.38898" stroke="#656C87" stroke-linecap="round" stroke-linejoin="round"/>
<circle cx="5.01807" cy="13.0049" r="1" fill="#656C87"/>
<circle cx="8.01025" cy="13.0049" r="1" fill="#656C87"/>
<circle cx="11" cy="13.0049" r="1" fill="#656C87"/>
<circle cx="13.9905" cy="13.0049" r="1" fill="#656C87"/>
</svg>
