<svg width="20" height="20" viewBox="0 0 20 20" fill="none" xmlns="http://www.w3.org/2000/svg">
<g clip-path="url(#clip0_4636_17871)">
<circle cx="12.5049" cy="2.50757" r="0.5" fill="#656C87"/>
<circle cx="16.5015" cy="2.50757" r="0.5" fill="#656C87"/>
<circle cx="16.4937" cy="6.49866" r="0.5" fill="#656C87"/>
<circle cx="12.5029" cy="6.49866" r="0.5" fill="#656C87"/>
<path d="M0.497559 1.50061C0.497559 0.948326 0.945274 0.50061 1.49756 0.50061H7.49756C8.04984 0.50061 8.49756 0.948326 8.49756 1.50061V7.50061C8.49756 8.0529 8.04984 8.50061 7.49756 8.50061H1.49756C0.945274 8.50061 0.497559 8.0529 0.497559 7.50061V1.50061Z" stroke="#656C87" stroke-linejoin="round"/>
<path d="M3.49756 3.5H5.49756V5.5H3.49756V3.5Z" fill="#656C87" stroke="#656C87" stroke-linejoin="round"/>
<path d="M10.5063 1.50183C10.5063 0.949546 10.9541 0.501831 11.5063 0.501831H17.5058C18.058 0.501831 18.5058 0.949546 18.5058 1.50183V7.49988C18.5058 8.05216 18.058 8.49988 17.5058 8.49988H11.5063C10.9541 8.49988 10.5063 8.05216 10.5063 7.49988V1.50183Z" stroke="#656C87" stroke-linejoin="round"/>
<path d="M2.51221 13.4961V15.5054M4.50781 13.4961L4.50781 15.5054M6.50391 13.4961L6.50391 15.5054" stroke="#656C87" stroke-linecap="round"/>
<path d="M12.0029 15.1288C12.0029 15.6102 12.3932 16.0004 12.8745 16.0004L16.155 15.9945C16.6203 15.9945 16.9975 15.6173 16.9975 15.152C16.9975 14.6867 16.6203 14.3095 16.155 14.3095C16.1261 14.3095 16.0975 14.311 16.0694 14.3138C16.0708 14.2951 16.0715 14.2763 16.0715 14.2573C16.0715 13.8381 15.7317 13.4984 15.3126 13.4984C15.154 13.4984 15.0067 13.5471 14.8849 13.6303C14.7184 13.2543 14.342 12.992 13.9044 12.992C13.3124 12.992 12.8326 13.4719 12.8326 14.0638C12.8326 14.13 12.8385 14.1948 12.85 14.2576C12.38 14.2706 12.0029 14.6557 12.0029 15.1288Z" fill="#656C87"/>
<path d="M4.49756 17.4962C3.94527 17.4962 3.49756 17.9439 3.49756 18.4962H5.49756C5.49756 17.9439 5.04984 17.4962 4.49756 17.4962Z" fill="#656C87"/>
<path fill-rule="evenodd" clip-rule="evenodd" d="M-0.00439453 11.5027C-0.00439453 10.6743 0.667179 10.0027 1.49561 10.0027H7.49561C8.32403 10.0027 8.99561 10.6743 8.99561 11.5027V13.6181C8.70345 13.7927 8.50781 14.1121 8.50781 14.4772C8.50781 14.8423 8.70345 15.1616 8.99561 15.3362V17.4998C8.99561 18.3282 8.32403 18.9998 7.49561 18.9998H1.49561C0.667178 18.9998 -0.00439453 18.3282 -0.00439453 17.4998V15.3845C0.307116 15.2151 0.518555 14.8849 0.518555 14.5054C0.518555 14.1258 0.307116 13.7957 -0.00439453 13.6263V11.5027ZM1.49561 11.0027C1.21946 11.0027 0.995605 11.2265 0.995605 11.5027V17.4998C0.995605 17.7759 1.21946 17.9998 1.49561 17.9998H7.49561C7.77175 17.9998 7.99561 17.7759 7.99561 17.4998V11.5027C7.99561 11.2265 7.77175 11.0027 7.49561 11.0027H1.49561Z" fill="#656C87"/>
<circle cx="14.5002" cy="14.5012" r="4" stroke="#656C87" stroke-linejoin="round"/>
</g>
<defs>
<clipPath id="clip0_4636_17871">
<rect width="20" height="20" fill="white"/>
</clipPath>
</defs>
</svg>
