<svg width="20" height="20" viewBox="0 0 20 20" fill="none" xmlns="http://www.w3.org/2000/svg">
<path fill-rule="evenodd" clip-rule="evenodd" d="M0.00390625 3.50586C0.00390625 2.67743 0.675479 2.00586 1.50391 2.00586H17.4956C18.324 2.00586 18.9956 2.67743 18.9956 3.50586V12.5043C18.9956 12.7804 18.7717 13.0043 18.4956 13.0043C18.2195 13.0043 17.9956 12.7804 17.9956 12.5043V8.99634H1.00391V14.5088C1.00391 14.7849 1.22776 15.0088 1.50391 15.0088H8.49609C8.77224 15.0088 8.99609 15.2326 8.99609 15.5088C8.99609 15.7849 8.77224 16.0088 8.49609 16.0088H1.50391C0.67548 16.0088 0.00390625 15.3372 0.00390625 14.5088C0.00390625 10.8388 0.00390625 7.17331 0.00390625 3.50586ZM1.00391 7.00806V7.99634H17.9956V7.00806H1.00391ZM17.9956 6.00806H1.00391V3.50586C1.00391 3.22972 1.22776 3.00586 1.50391 3.00586H17.4956C17.7717 3.00586 17.9956 3.22972 17.9956 3.50586V6.00806Z" fill="#656C87"/>
<path fill-rule="evenodd" clip-rule="evenodd" d="M2.97178 13.0369L2.97168 13.0383L2.97178 13.0398L2.97184 13.04C2.97192 13.0402 2.97226 13.0408 2.97304 13.0416C2.97382 13.0424 2.97447 13.0427 2.97467 13.0428L2.97485 13.0429L2.97632 13.043L2.97778 13.0429L2.97797 13.0428C2.97816 13.0427 2.97882 13.0424 2.9796 13.0416C2.98038 13.0408 2.98072 13.0402 2.9808 13.04L2.98086 13.0398L2.98096 13.0383L2.98086 13.0369L2.9808 13.0367C2.98072 13.0365 2.98038 13.0358 2.9796 13.0351C2.97882 13.0343 2.97816 13.0339 2.97797 13.0339L2.97778 13.0338L2.97632 13.0337L2.97485 13.0338L2.97467 13.0339C2.97447 13.0339 2.97382 13.0343 2.97304 13.0351C2.97226 13.0358 2.97192 13.0365 2.97184 13.0367L2.97178 13.0369ZM1.97168 13.0383C1.97168 12.4835 2.42147 12.0337 2.97632 12.0337C3.53117 12.0337 3.98096 12.4835 3.98096 13.0383C3.98096 13.5932 3.53117 14.043 2.97632 14.043C2.42147 14.043 1.97168 13.5932 1.97168 13.0383Z" fill="#656C87"/>
<path fill-rule="evenodd" clip-rule="evenodd" d="M15.5215 13.1779C15.6943 12.9625 16.009 12.9279 16.2244 13.1007L18.7342 15.114C18.8527 15.209 18.9215 15.3527 18.9214 15.5045C18.9212 15.6564 18.8521 15.7999 18.7334 15.8947L16.2236 17.8996C16.0078 18.0719 15.6932 18.0367 15.5209 17.821C15.3485 17.6052 15.3837 17.2906 15.5995 17.1183L16.9943 16.004H11.5067C11.2305 16.004 11.0067 15.7802 11.0067 15.504C11.0067 15.2279 11.2305 15.004 11.5067 15.004H16.999L15.5987 13.8808C15.3833 13.708 15.3487 13.3933 15.5215 13.1779Z" fill="#656C87"/>
</svg>
