<svg width="20" height="20" viewBox="0 0 20 20" fill="none" xmlns="http://www.w3.org/2000/svg">
<path fill-rule="evenodd" clip-rule="evenodd" d="M10 9.33325C9.45228 9.33325 9 9.78554 9 10.3333C9 10.881 9.45228 11.3333 10 11.3333C10.5477 11.3333 11 10.881 11 10.3333C11 9.78554 10.5477 9.33325 10 9.33325ZM8 10.3333C8 9.23325 8.9 8.33325 10 8.33325C11.1 8.33325 12 9.23325 12 10.3333C12 11.4333 11.1 12.3333 10 12.3333C8.9 12.3333 8 11.4333 8 10.3333Z" fill="#656C87"/>
<path fill-rule="evenodd" clip-rule="evenodd" d="M16 9.33325C15.4523 9.33325 15 9.78554 15 10.3333C15 10.881 15.4523 11.3333 16 11.3333C16.5477 11.3333 17 10.881 17 10.3333C17 9.78554 16.5477 9.33325 16 9.33325ZM14 10.3333C14 9.23325 14.9 8.33325 16 8.33325C17.1 8.33325 18 9.23325 18 10.3333C18 11.4333 17.1 12.3333 16 12.3333C14.9 12.3333 14 11.4333 14 10.3333Z" fill="#656C87"/>
<path fill-rule="evenodd" clip-rule="evenodd" d="M4 9.33325C3.45228 9.33325 3 9.78554 3 10.3333C3 10.881 3.45228 11.3333 4 11.3333C4.54772 11.3333 5 10.881 5 10.3333C5 9.78554 4.54772 9.33325 4 9.33325ZM2 10.3333C2 9.23325 2.9 8.33325 4 8.33325C5.1 8.33325 6 9.23325 6 10.3333C6 11.4333 5.1 12.3333 4 12.3333C2.9 12.3333 2 11.4333 2 10.3333Z" fill="#656C87"/>
</svg>
