<svg width="20" height="20" viewBox="0 0 20 20" fill="none" xmlns="http://www.w3.org/2000/svg">
<path d="M3.31726 12.5213L3.65064 12.8939L3.65948 12.886L3.66794 12.8777L3.31726 12.5213ZM15.6488 16.4902L15.6499 16.9902L15.6856 16.9901L15.721 16.9849L15.6488 16.4902ZM16.6724 12.5134L16.3374 12.8845L16.3528 12.8985L16.3694 12.9111L16.6724 12.5134ZM4.73678 16.5144V17.0144L4.73789 17.0144L4.73678 16.5144ZM5.34009 7.43901C5.34009 4.90363 7.40014 2.99591 10.0044 2.99591V1.99591C6.90437 1.99591 4.34009 4.29647 4.34009 7.43901H5.34009ZM10.0044 2.99591C12.6086 2.99591 14.6685 4.90361 14.6685 7.43901H15.6685C15.6685 4.29649 13.1044 1.99591 10.0044 1.99591V2.99591ZM4.34009 7.43901C4.34009 8.43881 4.78766 10.3731 2.96659 12.1649L3.66794 12.8777C5.86057 10.7203 5.34009 8.22993 5.34009 7.43901H4.34009ZM17.0513 14.2863C17.0513 15.1543 16.4106 15.8735 15.5765 15.9954L15.721 16.9849C17.0393 16.7923 18.0513 15.6579 18.0513 14.2863H17.0513ZM16.3694 12.9111C16.7847 13.2275 17.0513 13.7257 17.0513 14.2863H18.0513C18.0513 13.4003 17.6283 12.613 16.9753 12.1156L16.3694 12.9111ZM14.6685 7.43901C14.6685 8.28884 14.2097 10.9642 16.3374 12.8845L17.0074 12.1422C15.2918 10.5938 15.6685 8.52192 15.6685 7.43901H14.6685ZM4.73678 16.0144C3.77152 16.0144 2.98901 15.2319 2.98901 14.2667H1.98901C1.98901 15.7842 3.21923 17.0144 4.73678 17.0144V16.0144ZM2.98901 14.2667C2.98901 13.723 3.23448 13.2663 3.65064 12.8939L2.98388 12.1487C2.40181 12.6694 1.98901 13.382 1.98901 14.2667H2.98901ZM4.73789 17.0144L15.6499 16.9902L15.6476 15.9902L4.73567 16.0144L4.73789 17.0144Z" fill="#656C87"/>
<path d="M7.5387 16.5146V16.0146C7.29755 16.0146 7.09075 16.1868 7.047 16.4239L7.5387 16.5146ZM12.474 16.5146L12.9657 16.4239C12.9219 16.1868 12.7151 16.0146 12.474 16.0146V16.5146ZM7.99658 16.9771C7.99658 16.8497 8.00824 16.7255 8.0304 16.6054L7.047 16.4239C7.01384 16.6036 6.99658 16.7886 6.99658 16.9771H7.99658ZM10.0063 18.9985C8.89857 18.9985 7.99658 18.0957 7.99658 16.9771H6.99658C6.99658 18.6436 8.34191 19.9985 10.0063 19.9985V18.9985ZM12.0161 16.9771C12.0161 18.0957 11.1141 18.9985 10.0063 18.9985V19.9985C11.6708 19.9985 13.0161 18.6436 13.0161 16.9771H12.0161ZM11.9823 16.6054C12.0044 16.7255 12.0161 16.8497 12.0161 16.9771H13.0161C13.0161 16.7886 12.9988 16.6036 12.9657 16.4239L11.9823 16.6054ZM12.474 16.0146H7.5387V17.0146H12.474V16.0146Z" fill="#656C87"/>
<path d="M13.278 7.34068C12.9146 5.97426 11.8504 4.89349 10.4938 4.50659" stroke="#656C87" stroke-linecap="round"/>
<circle cx="10.0122" cy="1.5" r="1" stroke="#656C87"/>
</svg>
