<svg width="20" height="20" viewBox="0 0 32 32" fill="none" xmlns="http://www.w3.org/2000/svg">
<path d="M11.4968 15.5049L11.4968 4.51153" stroke="#656C87" stroke-linecap="round" stroke-linejoin="round"/>
<path d="M24.2505 21.5031L7.53418 21.5058" stroke="#656C87" stroke-linecap="round" stroke-linejoin="round" stroke-dasharray="2 2"/>
<path d="M14.5032 15.5156L14.5032 4.58041" stroke="#656C87" stroke-linecap="round" stroke-linejoin="round"/>
<circle cx="21.7295" cy="8.30293" r="0.807422" transform="rotate(-90 21.7295 8.30293)" fill="#656C87" stroke="#656C87"/>
<path d="M4.5022 4.51123H27.5104" stroke="#656C87" stroke-linecap="round" stroke-linejoin="round"/>
<path d="M6.50109 9.50551H1.50269V1.51807H30.5019V9.49979H25.515" stroke="#656C87" stroke-linecap="round" stroke-linejoin="round"/>
<path d="M6.49878 4.48389L6.49854 27.9027C6.49854 28.7864 7.21488 29.5027 8.09854 29.5027L12.0003 29.5027C12.0003 29.5027 12.0003 28.9654 12.0003 28.6852C12.0003 26.4761 13.7912 24.796 16.0003 24.796C18.2095 24.796 19.9826 26.4761 19.9826 28.6852C19.9826 28.9654 19.9826 29.5027 19.9826 29.5027H23.8869C24.7706 29.5027 25.4869 28.7864 25.4869 27.9027L25.5046 4.49033" stroke="#656C87" stroke-linejoin="round"/>
</svg>
