<svg width="20" height="20" viewBox="0 0 20 20" fill="none" xmlns="http://www.w3.org/2000/svg">
<g clip-path="url(#clip0_4636_18067)">
<path d="M16.513 9.0756V10.9583C16.513 11.0261 16.4904 11.0912 16.4451 11.1533C16.3999 11.2155 16.3434 11.2523 16.2755 11.2636L15.1165 11.439C14.8643 11.4772 14.6458 11.6831 14.5456 11.9177V11.9177C14.443 12.1578 14.4698 12.4082 14.6275 12.6162C14.8028 12.8474 15.0214 13.123 15.2833 13.4431C15.3398 13.5109 15.3681 13.5816 15.3681 13.6551C15.3681 13.7286 15.3427 13.7936 15.2918 13.8502C15.1391 14.0594 14.8593 14.3647 14.4522 14.7661C14.0451 15.1675 13.7794 15.3682 13.655 15.3682C13.5872 15.3682 13.5137 15.3427 13.4345 15.2919L12.5941 14.6341C12.3932 14.4769 12.1198 14.4559 11.8845 14.5541V14.5541C11.6494 14.6523 11.474 14.8609 11.4414 15.1136C11.3709 15.6598 11.3059 16.0471 11.2465 16.2756C11.207 16.4339 11.1052 16.5131 10.9412 16.5131H9.05855C8.9794 16.5131 8.91014 16.489 8.85078 16.441C8.79141 16.3929 8.7589 16.3321 8.75325 16.2586L8.5773 15.1024C8.53959 14.8546 8.35304 14.6487 8.12111 14.5535V14.5535C7.88512 14.4567 7.62334 14.4825 7.42015 14.6367L6.55678 15.2919C6.50025 15.3427 6.42957 15.3682 6.34477 15.3682C6.26562 15.3682 6.19495 15.3371 6.13275 15.2749C5.42039 14.6304 4.95395 14.1555 4.73346 13.8502C4.69388 13.7936 4.6741 13.7286 4.6741 13.6551C4.6741 13.5873 4.69671 13.5222 4.74194 13.4601C4.82675 13.3413 4.97092 13.1533 5.17445 12.8961C5.24287 12.8096 5.30554 12.7297 5.36246 12.6563C5.5306 12.4396 5.53894 12.1358 5.43357 11.8825V11.8825C5.32553 11.6228 5.1059 11.4323 4.82764 11.3912L3.73275 11.2297C3.65925 11.2184 3.59989 11.183 3.55466 11.1237C3.50943 11.0643 3.48682 10.9979 3.48682 10.9244V9.04168C3.48682 8.97383 3.50943 8.90882 3.55466 8.84663C3.59989 8.78444 3.6536 8.74769 3.71579 8.73638L4.86969 8.56267C5.12841 8.52373 5.33439 8.34609 5.43672 8.1053V8.1053C5.5375 7.86816 5.53119 7.58474 5.37617 7.37893C5.19067 7.13266 4.97078 6.85581 4.7165 6.54839C4.65996 6.48055 4.63169 6.4127 4.63169 6.34486C4.63169 6.28832 4.65714 6.2233 4.70802 6.14981C4.85502 5.94627 5.13346 5.64238 5.54335 5.23814C5.95325 4.8339 6.22039 4.63178 6.34477 4.63178C6.41827 4.63178 6.49176 4.66005 6.56526 4.71659L7.40536 5.36797C7.60657 5.52398 7.8794 5.54438 8.11433 5.44623V5.44623C8.35004 5.34776 8.52583 5.13865 8.55854 4.8853C8.62898 4.33969 8.69388 3.95271 8.75325 3.72436C8.79283 3.56606 8.89459 3.48691 9.05855 3.48691H10.9412C11.0204 3.48691 11.0896 3.51093 11.149 3.55899C11.2084 3.60705 11.2409 3.66782 11.2465 3.74132L11.4224 4.89681C11.4602 5.14511 11.647 5.35139 11.8794 5.44673V5.44673C12.1151 5.54344 12.3764 5.51819 12.5799 5.36489L13.4515 4.70811C13.5024 4.65723 13.5702 4.63178 13.655 4.63178C13.7285 4.63178 13.7992 4.66005 13.867 4.71659C14.5964 5.38938 15.0628 5.86995 15.2663 6.15829C15.3059 6.20352 15.3257 6.26571 15.3257 6.34486C15.3257 6.4127 15.3031 6.47772 15.2578 6.53991C15.173 6.65864 15.0289 6.84663 14.8253 7.10387C14.7568 7.19054 14.694 7.27063 14.6369 7.34415C14.4686 7.56117 14.4572 7.86532 14.5633 8.11863V8.11863C14.6708 8.37497 14.8893 8.5595 15.1641 8.60154L16.267 8.7703C16.3405 8.78161 16.3999 8.81694 16.4451 8.87631C16.4904 8.93567 16.513 9.0021 16.513 9.0756Z" stroke="#656C87"/>
<circle cx="10" cy="10" r="2" stroke="#656C87"/>
<path d="M19.5367 10C19.5367 15.2467 15.2834 19.5 10.0367 19.5C6.90677 19.5 4.24009 17.9785 2.50928 15.6433M2.50928 15.6433L2.68261 18.009M2.50928 15.6433L4.89702 16.2659" stroke="#656C87" stroke-linecap="round" stroke-linejoin="round"/>
<path d="M0.49896 10C0.49896 4.75329 4.75225 0.5 9.99896 0.5C13.1289 0.5 15.7956 2.02146 17.5264 4.35665M17.5264 4.35665L17.353 1.99096M17.5264 4.35665L15.1386 3.73409" stroke="#656C87" stroke-linecap="round" stroke-linejoin="round"/>
</g>
<defs>
<clipPath id="clip0_4636_18067">
<rect width="20" height="20" fill="white"/>
</clipPath>
</defs>
</svg>
