<svg width="20" height="20" viewBox="0 0 20 20" fill="none" xmlns="http://www.w3.org/2000/svg">
<path d="M4.85834 1.50903H15.0207M15.1354 8.50903H4.85826" stroke="#656C87" stroke-linejoin="round"/>
<path d="M4.97827 8.50903C3.04649 8.50903 1.48047 6.94301 1.48047 5.01123C1.48047 3.07945 3.04649 1.51343 4.97827 1.51343" stroke="#656C87"/>
<circle cx="4.97827" cy="5.00903" r="1.50098" stroke="#656C87"/>
<path d="M14.9932 8.50903C16.9262 8.50903 18.4932 6.94203 18.4932 5.00903C18.4932 3.07604 16.9262 1.50903 14.9932 1.50903" stroke="#656C87"/>
<path d="M15.1152 11.509H4.95289M4.83819 18.509H15.1153" stroke="#656C87" stroke-linejoin="round"/>
<path d="M14.9954 18.509C16.9271 18.509 18.4932 16.943 18.4932 15.0112C18.4932 13.0794 16.9271 11.5134 14.9954 11.5134" stroke="#656C87"/>
<circle cx="1.50098" cy="1.50098" r="1.50098" transform="matrix(-1 0 0 1 16.4963 13.5081)" fill="#656C87" stroke="#656C87"/>
<path d="M4.98047 18.509C3.04747 18.509 1.48047 16.942 1.48047 15.009C1.48047 13.076 3.04747 11.509 4.98047 11.509" stroke="#656C87"/>
</svg>
