<svg width="20" height="20" viewBox="0 0 20 20" fill="none" xmlns="http://www.w3.org/2000/svg">
<g clip-path="url(#clip0_4636_94475)">
<path d="M8.00188 14.6625C8.39654 12.2701 10.4739 10.4922 12.9994 10.4922C15.5248 10.4922 17.5916 12.2701 17.9842 14.6625C18.0587 15.1166 17.6783 15.4925 17.218 15.4925H8.76766C8.30742 15.4925 7.92696 15.1166 8.00188 14.6625Z" stroke="#656C87"/>
<circle cx="13.012" cy="8.48633" r="2.00586" stroke="#656C87" stroke-linejoin="round"/>
<path d="M8.40273 13.5035H2.78206C2.32183 13.5035 1.94141 13.1279 2.01118 12.673C2.38531 10.2334 4.40135 8.52563 6.9998 8.52563C8.65241 8.52563 10.1138 9.16799 11.0606 10.2571L11.2907 10.4942" stroke="#656C87"/>
<circle cx="7.02368" cy="6.50146" r="1.9939" stroke="#656C87" stroke-linejoin="round"/>
<path d="M1.29872 6.19935C2.41719 3.64749 4.64282 1.60866 7.5434 0.831445C12.6111 -0.526449 17.8201 2.48097 19.178 7.5487C20.5359 12.6164 17.5285 17.8254 12.4608 19.1833C9.56019 19.9605 6.61332 19.3077 4.36877 17.6569M1.29872 6.19935L0.901255 3.83673M1.29872 6.19935L3.6812 5.26872" stroke="#656C87" stroke-linecap="round" stroke-linejoin="round"/>
</g>
<defs>
<clipPath id="clip0_4636_94475">
<rect width="20" height="20" fill="white"/>
</clipPath>
</defs>
</svg>
