<svg width="20" height="20" viewBox="0 0 20 20" fill="none" xmlns="http://www.w3.org/2000/svg">
<g clip-path="url(#clip0_4635_5321)">
<path fill-rule="evenodd" clip-rule="evenodd" d="M0.00390625 1.50586C0.00390625 0.677432 0.675479 0.00585938 1.50391 0.00585938H16.4956C17.324 0.00585938 17.9956 0.677432 17.9956 1.50586V7.95338H16.9956V1.50586C16.9956 1.22972 16.7717 1.00586 16.4956 1.00586H1.50391C1.22776 1.00586 1.00391 1.22972 1.00391 1.50586V12.5088C1.00391 12.7849 1.22776 13.0088 1.50391 13.0088H12.6444V14.0088H1.50391C0.67548 14.0088 0.00390625 13.3372 0.00390625 12.5088V1.50586Z" fill="#656C87"/>
<path fill-rule="evenodd" clip-rule="evenodd" d="M16.2205 8.3418C14.6879 8.3418 13.4455 9.5842 13.4455 11.1168C13.4455 11.5991 13.5682 12.0513 13.7836 12.4454C13.884 12.6291 13.8593 12.8558 13.7218 13.0137L13.5809 13.1754L9.45147 18.1062L9.451 18.9074L10.0509 18.8425L10.2171 17.9907C10.2579 17.7818 10.4264 17.6216 10.6372 17.5915L11.3998 17.4826L11.519 16.6294C11.5499 16.4081 11.7239 16.2341 11.9452 16.2033L12.627 16.1084L12.7028 15.274C12.7232 15.0483 12.8929 14.8646 13.1163 14.8264L14.015 14.6725L14.531 13.8673C14.6622 13.6625 14.9216 13.5818 15.1458 13.6761C15.4757 13.8148 15.8385 13.8918 16.2205 13.8918C17.7531 13.8918 18.9955 12.6494 18.9955 11.1168C18.9955 9.5842 17.7531 8.3418 16.2205 8.3418ZM12.4455 11.1168C12.4455 9.03191 14.1356 7.3418 16.2205 7.3418C18.3054 7.3418 19.9955 9.03191 19.9955 11.1168C19.9955 13.2016 18.3054 14.8918 16.2205 14.8918C15.8525 14.8918 15.4963 14.839 15.1592 14.7404L14.7379 15.3978C14.6621 15.5162 14.5399 15.5971 14.4013 15.6209L13.6639 15.7472L13.5871 16.594C13.5661 16.8255 13.3883 17.012 13.1581 17.0441L12.4571 17.1417L12.3382 17.9935C12.3074 18.2142 12.1343 18.3878 11.9137 18.4193L11.1305 18.5312L10.9618 19.3957C10.9199 19.6108 10.7427 19.7735 10.5248 19.7971L9.00443 19.9615C8.86324 19.9767 8.72222 19.9312 8.61656 19.8363C8.51091 19.7414 8.4506 19.6061 8.45068 19.4641L8.45157 17.924C8.45164 17.8068 8.49294 17.6932 8.56825 17.6033L12.7517 12.6081C12.5546 12.1502 12.4455 11.6457 12.4455 11.1168Z" fill="#656C87"/>
<path d="M17.6113 10.0925C17.6113 10.4546 17.3178 10.748 16.9558 10.748C16.5938 10.748 16.3003 10.4546 16.3003 10.0925C16.3003 9.7305 16.5938 9.43701 16.9558 9.43701C17.3178 9.43701 17.6113 9.7305 17.6113 10.0925Z" fill="#656C87"/>
<path d="M4.98584 8.13477C4.98584 8.0459 4.97217 7.96615 4.94482 7.89551C4.91976 7.82259 4.87191 7.75651 4.80127 7.69727C4.73063 7.63574 4.63151 7.57536 4.50391 7.51611C4.3763 7.45687 4.2111 7.39534 4.0083 7.33154C3.78271 7.25863 3.56852 7.17659 3.36572 7.08545C3.1652 6.9943 2.98747 6.88835 2.83252 6.76758C2.67985 6.64453 2.55908 6.50212 2.47021 6.34033C2.38363 6.17855 2.34033 5.99056 2.34033 5.77637C2.34033 5.56901 2.3859 5.38102 2.47705 5.2124C2.5682 5.0415 2.6958 4.89567 2.85986 4.7749C3.02393 4.65186 3.21761 4.55729 3.44092 4.49121C3.6665 4.42513 3.91374 4.39209 4.18262 4.39209C4.54948 4.39209 4.86963 4.45817 5.14307 4.59033C5.4165 4.72249 5.62842 4.90365 5.77881 5.13379C5.93148 5.36393 6.00781 5.62712 6.00781 5.92334H4.98926C4.98926 5.77751 4.9585 5.6499 4.89697 5.54053C4.83773 5.42887 4.74658 5.34115 4.62354 5.27734C4.50277 5.21354 4.3501 5.18164 4.16553 5.18164C3.98779 5.18164 3.83968 5.20898 3.72119 5.26367C3.6027 5.31608 3.51383 5.38786 3.45459 5.479C3.39535 5.56787 3.36572 5.66813 3.36572 5.77979C3.36572 5.8641 3.38623 5.94043 3.42725 6.00879C3.47054 6.07715 3.53434 6.14095 3.61865 6.2002C3.70296 6.25944 3.80664 6.31527 3.92969 6.36768C4.05273 6.42008 4.19515 6.47135 4.35693 6.52148C4.62809 6.60352 4.86621 6.6958 5.07129 6.79834C5.27865 6.90088 5.45182 7.01595 5.59082 7.14355C5.72982 7.27116 5.83464 7.41585 5.90527 7.57764C5.97591 7.73942 6.01123 7.92285 6.01123 8.12793C6.01123 8.3444 5.96908 8.53809 5.88477 8.70898C5.80046 8.87988 5.67855 9.02458 5.51904 9.14307C5.35954 9.26156 5.16927 9.35156 4.94824 9.41309C4.72721 9.47461 4.47998 9.50537 4.20654 9.50537C3.96045 9.50537 3.71777 9.47347 3.47852 9.40967C3.23926 9.34359 3.02165 9.24447 2.82568 9.1123C2.632 8.98014 2.47705 8.81152 2.36084 8.60645C2.24463 8.40137 2.18652 8.15869 2.18652 7.87842H3.21533C3.21533 8.03337 3.23926 8.16439 3.28711 8.27148C3.33496 8.37858 3.40218 8.46517 3.48877 8.53125C3.57764 8.59733 3.68245 8.64518 3.80322 8.6748C3.92627 8.70443 4.06071 8.71924 4.20654 8.71924C4.38428 8.71924 4.53011 8.69417 4.64404 8.64404C4.76025 8.59391 4.8457 8.52441 4.90039 8.43555C4.95736 8.34668 4.98584 8.24642 4.98584 8.13477Z" fill="#656C87"/>
<path d="M9.29932 8.13477C9.29932 8.0459 9.28564 7.96615 9.2583 7.89551C9.23324 7.82259 9.18538 7.75651 9.11475 7.69727C9.04411 7.63574 8.94499 7.57536 8.81738 7.51611C8.68978 7.45687 8.52458 7.39534 8.32178 7.33154C8.09619 7.25863 7.882 7.17659 7.6792 7.08545C7.47868 6.9943 7.30094 6.88835 7.146 6.76758C6.99333 6.64453 6.87256 6.50212 6.78369 6.34033C6.6971 6.17855 6.65381 5.99056 6.65381 5.77637C6.65381 5.56901 6.69938 5.38102 6.79053 5.2124C6.88167 5.0415 7.00928 4.89567 7.17334 4.7749C7.3374 4.65186 7.53109 4.55729 7.75439 4.49121C7.97998 4.42513 8.22721 4.39209 8.49609 4.39209C8.86296 4.39209 9.18311 4.45817 9.45654 4.59033C9.72998 4.72249 9.94189 4.90365 10.0923 5.13379C10.245 5.36393 10.3213 5.62712 10.3213 5.92334H9.30273C9.30273 5.77751 9.27197 5.6499 9.21045 5.54053C9.1512 5.42887 9.06006 5.34115 8.93701 5.27734C8.81624 5.21354 8.66357 5.18164 8.479 5.18164C8.30127 5.18164 8.15316 5.20898 8.03467 5.26367C7.91618 5.31608 7.82731 5.38786 7.76807 5.479C7.70882 5.56787 7.6792 5.66813 7.6792 5.77979C7.6792 5.8641 7.69971 5.94043 7.74072 6.00879C7.78402 6.07715 7.84782 6.14095 7.93213 6.2002C8.01644 6.25944 8.12012 6.31527 8.24316 6.36768C8.36621 6.42008 8.50863 6.47135 8.67041 6.52148C8.94157 6.60352 9.17969 6.6958 9.38477 6.79834C9.59212 6.90088 9.7653 7.01595 9.9043 7.14355C10.0433 7.27116 10.1481 7.41585 10.2188 7.57764C10.2894 7.73942 10.3247 7.92285 10.3247 8.12793C10.3247 8.3444 10.2826 8.53809 10.1982 8.70898C10.1139 8.87988 9.99202 9.02458 9.83252 9.14307C9.67301 9.26156 9.48275 9.35156 9.26172 9.41309C9.04069 9.47461 8.79346 9.50537 8.52002 9.50537C8.27393 9.50537 8.03125 9.47347 7.79199 9.40967C7.55273 9.34359 7.33512 9.24447 7.13916 9.1123C6.94548 8.98014 6.79053 8.81152 6.67432 8.60645C6.55811 8.40137 6.5 8.15869 6.5 7.87842H7.52881C7.52881 8.03337 7.55273 8.16439 7.60059 8.27148C7.64844 8.37858 7.71566 8.46517 7.80225 8.53125C7.89111 8.59733 7.99593 8.64518 8.1167 8.6748C8.23975 8.70443 8.37419 8.71924 8.52002 8.71924C8.69775 8.71924 8.84359 8.69417 8.95752 8.64404C9.07373 8.59391 9.15918 8.52441 9.21387 8.43555C9.27083 8.34668 9.29932 8.24642 9.29932 8.13477Z" fill="#656C87"/>
<path d="M14.3408 6.4873V7.28711H11.7432V6.4873H14.3408ZM12.0474 4.46045V9.43701H11.022V4.46045H12.0474ZM15.0723 4.46045V8.43701H14.0503V4.46045H15.0723Z" fill="#656C87"/>
</g>
<defs>
<clipPath id="clip0_4635_5321">
<rect width="20" height="20" fill="white"/>
</clipPath>
</defs>
</svg>
