<svg width="20" height="20" viewBox="0 0 20 20" fill="none" xmlns="http://www.w3.org/2000/svg">
<g clip-path="url(#clip0_4636_94435)">
<path d="M2.57008 18.6481C2.98492 14.964 6.14605 12.5161 10.0198 12.5161C13.8935 12.5161 17.0386 14.964 17.4512 18.648C17.5025 19.1054 17.124 19.4802 16.6638 19.4802H3.35726C2.89702 19.4802 2.51858 19.1054 2.57008 18.6481Z" stroke="#656C87"/>
<circle cx="9.96109" cy="9.50552" r="2.99478" stroke="#656C87" stroke-linejoin="round"/>
<path d="M11.243 12.4999H18.7169C19.1772 12.4999 19.5576 12.1243 19.4879 11.6694C19.1131 9.22006 17.0864 7.5083 14.4773 7.5083C13.8298 7.5083 13.2108 7.60656 12.6401 7.7914" stroke="#656C87"/>
<circle cx="14.5109" cy="5.48828" r="2.00586" stroke="#656C87" stroke-linejoin="round"/>
<path d="M6.90163 9.50578H1.28097C0.820728 9.50578 0.440316 9.13019 0.510083 8.67527C0.884214 6.23576 2.90025 4.52795 5.4987 4.52795C7.15131 4.52795 8.61272 5.17031 9.5595 6.25942L9.78961 6.49648" stroke="#656C87"/>
<circle cx="5.52271" cy="2.50366" r="1.9939" stroke="#656C87" stroke-linejoin="round"/>
</g>
<defs>
<clipPath id="clip0_4636_94435">
<rect width="20" height="20" fill="white"/>
</clipPath>
</defs>
</svg>
